<?xml version="1.0" encoding="UTF-8" standalone="no"?>
<!-- Created with Inkscape (http://www.inkscape.org/) -->

<svg
   xmlns:dc="http://purl.org/dc/elements/1.1/"
   xmlns:cc="http://creativecommons.org/ns#"
   xmlns:rdf="http://www.w3.org/1999/02/22-rdf-syntax-ns#"
   xmlns:svg="http://www.w3.org/2000/svg"
   xmlns="http://www.w3.org/2000/svg"
   xmlns:sodipodi="http://sodipodi.sourceforge.net/DTD/sodipodi-0.dtd"
   xmlns:inkscape="http://www.inkscape.org/namespaces/inkscape"
   width="16.906462mm"
   height="15.080338mm"
   viewBox="0 0 16.906462 15.080338"
   version="1.1"
   id="svg7663"
   inkscape:version="0.92.1 r15371"
   sodipodi:docname="LOGO INITIALS CSS.svg">
  <defs
     id="defs7657" />
  <sodipodi:namedview
     id="base"
     pagecolor="#ffffff"
     bordercolor="#666666"
     borderopacity="1.0"
     inkscape:pageopacity="0.0"
     inkscape:pageshadow="2"
     inkscape:zoom="14.913183"
     inkscape:cx="31.949203"
     inkscape:cy="28.284079"
     inkscape:document-units="mm"
     inkscape:current-layer="flowRoot5804"
     showgrid="false"
     fit-margin-top="0"
     fit-margin-left="0"
     fit-margin-right="0"
     fit-margin-bottom="0"
     inkscape:window-width="1920"
     inkscape:window-height="1017"
     inkscape:window-x="-8"
     inkscape:window-y="-8"
     inkscape:window-maximized="1" />
  <metadata
     id="metadata7660">
    <rdf:RDF>
      <cc:Work
         rdf:about="">
        <dc:format>image/svg+xml</dc:format>
        <dc:type
           rdf:resource="http://purl.org/dc/dcmitype/StillImage" />
        <dc:title></dc:title>
      </cc:Work>
    </rdf:RDF>
  </metadata>
  <g
     inkscape:label="Layer 1"
     inkscape:groupmode="layer"
     id="layer1"
     transform="translate(-107.96344,-104.2515)">
    <g
       transform="translate(40.582536,-108.12726)"
       id="g7642">
      <g
         id="flowRoot5804"
         style="font-style:normal;font-weight:normal;font-size:22.5px;line-height:125%;font-family:sans-serif;letter-spacing:0px;word-spacing:0px;opacity:1;fill:#000000;fill-opacity:1;stroke:none;stroke-width:1px;stroke-linecap:butt;stroke-linejoin:miter;stroke-opacity:1"
         transform="matrix(0.12180709,0,0,0.26138024,60.156754,24.532004)"
         aria-label="CSS">
        <path
           inkscape:connector-curvature="0"
           id="path7544"
           d="m 85.666613,718.91009 c -3.791662,0 -7.315303,0.75284 -10.572247,2.25978 -3.232638,1.48264 -6.025502,3.52424 -8.383154,6.12493 -2.333324,2.57639 -4.156063,5.61425 -5.468563,9.11425 -1.288194,3.49999 -1.934561,7.21904 -1.934561,11.15654 0,3.9132 0.646367,7.66806 1.934561,11.26529 1.3125,3.59722 3.196124,6.7087 5.651002,9.3337 2.479162,2.625 5.295529,4.6553 8.455247,6.08933 3.159741,1.40973 6.626732,2.11348 10.394088,2.11348 3.937501,0 7.522049,-0.74155 10.754687,-2.22419 3.256944,-1.50694 5.988927,-3.47492 8.200717,-5.90547 2.21181,-2.45487 3.7813,-4.99459 4.70492,-7.61959 l -6.41888,-3.02688 c -2.01736,4.25348 -4.444827,7.31587 -7.288585,9.1874 -2.843736,1.84722 -6.188935,2.77183 -10.029232,2.77183 -2.819429,0 -5.359064,-0.58302 -7.619491,-1.7497 -2.260405,-1.19097 -4.21458,-2.66279 -5.867348,-4.41279 -1.628461,-1.77431 -2.954363,-3.98571 -3.975209,-6.63501 -1.020824,-2.67361 -1.53154,-5.73601 -1.53154,-9.1874 0,-2.91667 0.463689,-5.68656 1.387309,-8.31156 0.923599,-2.6493 2.212118,-4.97212 3.864886,-6.96518 1.677096,-2.01736 3.678276,-3.62119 6.0116,-4.81216 2.333324,-1.19098 4.910364,-1.78529 7.729793,-1.78529 3.305557,0 6.295001,0.78866 8.968614,2.36852 1.67475,0.98072 3.119838,2.2199 4.382488,3.65954 l 4.446105,-2.77579 c 0.60052,-0.37504 0.98901,-0.60682 1.54851,-0.95294 -1.22179,-1.51388 -2.6757,-2.91334 -4.36127,-4.19532 -1.701377,-1.33681 -3.777345,-2.48031 -6.232201,-3.42823 -2.454856,-0.97222 -5.37377,-1.45709 -8.752246,-1.45709 z m 23.299727,15.59505 c -0.0645,0.0405 -0.0619,0.04 -0.12729,0.0811 h 0.12729 z"
           style="font-style:normal;font-variant:normal;font-weight:normal;font-stretch:normal;font-size:74.66666412px;font-family:Arvo;-inkscape-font-specification:Arvo;stroke-width:1px" />
        <path
           inkscape:connector-curvature="0"
           id="path7546"
           d="m 133.79109,719.09197 c -2.98961,0 -5.65102,0.40194 -7.98434,1.20403 -2.30904,0.77776 -4.26743,1.85894 -5.87161,3.24436 -1.60415,1.38541 -2.81789,3.00251 -3.64428,4.84972 -0.8264,1.84723 -1.23882,3.82648 -1.23882,5.94106 0,2.09028 0.27675,3.93754 0.83578,5.5417 0.55902,1.57986 1.35068,2.96679 2.37155,4.15776 1.04513,1.19098 2.28237,2.19851 3.7164,3.0249 1.45834,0.82638 3.06523,1.50759 4.81522,2.0423 l 7.98435,2.25978 c 1.06946,0.34027 2.17526,0.74222 3.31763,1.20403 1.16664,0.4618 2.23508,1.05612 3.20731,1.78528 0.97221,0.72917 1.7639,1.61598 2.37154,2.66113 0.63196,1.02083 0.94608,2.27377 0.94608,3.75641 0,1.33682 -0.25323,2.54067 -0.76365,3.61011 -0.4861,1.04514 -1.20725,1.94325 -2.15518,2.69671 -0.9236,0.72917 -2.05294,1.28766 -3.38973,1.67654 -1.3125,0.38891 -2.79334,0.58324 -4.44613,0.58324 -1.70138,-1e-5 -3.25701,-0.18108 -4.66674,-0.54567 -1.4097,-0.38889 -2.62769,-0.94737 -3.64851,-1.67655 -1.02085,-0.75347 -1.82218,-1.68936 -2.40551,-2.80742 -0.34635,-0.69266 -0.57329,-1.72539 -0.70425,-3.02491 -0.0842,0.0527 -0.0718,0.0476 -0.15696,0.10084 -2.43457,1.52165 -4.8573,3.05055 -6.21948,3.91655 0.44823,1.30089 1.0197,2.57754 1.76062,3.81968 0.82639,1.38541 1.91833,2.6251 3.27945,3.71885 1.38541,1.06944 3.08634,1.92044 5.1037,2.55238 2.01736,0.65626 4.44909,0.98261 7.29282,0.98261 2.77084,0 5.31046,-0.39997 7.61949,-1.20206 2.33333,-0.82639 4.33874,-1.95662 6.01586,-3.39065 1.67705,-1.43403 2.97522,-3.12277 3.89884,-5.06721 0.9479,-1.94445 1.42547,-4.05966 1.42547,-6.34438 0,-2.11459 -0.30451,-3.97312 -0.91215,-5.57728 -0.58331,-1.60416 -1.44552,-3.01563 -2.5879,-4.23091 -1.14235,-1.23959 -2.56657,-2.30749 -4.26793,-3.20679 -1.67711,-0.8993 -3.6216,-1.70122 -5.83342,-2.40608 l -7.36495,-2.40609 c -0.97224,-0.34028 -1.99363,-0.68187 -3.06306,-1.02214 -1.04513,-0.34027 -2.00566,-0.80258 -2.88064,-1.38591 -0.87503,-0.60765 -1.60155,-1.39631 -2.18488,-2.36853 -0.55905,-0.99651 -0.84002,-2.29657 -0.84002,-3.90073 0,-1.06946 0.23397,-2.09024 0.69576,-3.06246 0.46183,-0.97222 1.14134,-1.82323 2.04063,-2.55239 0.92362,-0.72916 2.07645,-1.30091 3.46187,-1.71412 1.38542,-0.43748 3.00193,-0.65638 4.84915,-0.65637 1.11805,0 2.23775,0.15852 3.35582,0.47448 1.11805,0.29167 2.13944,0.72944 3.06306,1.31278 0.9479,0.55902 1.81014,1.37222 2.58792,2.44166 0.35475,0.48778 0.61737,1.10272 0.81032,1.81296 l 5.38793,-3.36297 c 0.31683,-0.19789 0.51217,-0.31162 0.81882,-0.50217 -0.64394,-1.17212 -1.38664,-2.27482 -2.27822,-3.27006 -1.02082,-1.19098 -2.21105,-2.20049 -3.57217,-3.02688 -1.3368,-0.85069 -2.84538,-1.50537 -4.52248,-1.96718 -1.65279,-0.4618 -3.46163,-0.69394 -5.43038,-0.69394 z"
           style="font-style:normal;font-variant:normal;font-weight:normal;font-stretch:normal;font-size:74.66666412px;font-family:Arvo;-inkscape-font-specification:Arvo;stroke-width:1px" />
        <path
           inkscape:connector-curvature="0"
           id="path7548"
           d="m 179.4382,719.09197 c -2.9896,0 -5.65105,0.40194 -7.98435,1.20403 -2.30904,0.77777 -4.26319,1.85894 -5.86737,3.24435 -1.60415,1.38542 -2.82214,3.00251 -3.64852,4.84973 -0.82639,1.84722 -1.23882,3.82648 -1.23882,5.94106 0,2.09027 0.28099,3.93754 0.84002,5.5417 0.55902,1.57986 1.34647,2.96678 2.36732,4.15775 1.04513,1.19098 2.28662,2.19852 3.72065,3.02491 1.45832,0.82639 3.06097,1.50758 4.81097,2.0423 l 7.98434,2.25978 c 1.06946,0.34027 2.17528,0.74222 3.31762,1.20403 1.16668,0.4618 2.2351,1.05611 3.20733,1.78528 0.97221,0.72917 1.76389,1.61599 2.37153,2.66113 0.63194,1.02083 0.94608,2.27376 0.94608,3.7564 0,1.33682 -0.25323,2.54068 -0.76364,3.61012 -0.48611,1.04514 -1.20302,1.94323 -2.15095,2.6967 -0.9236,0.72917 -2.05292,1.28766 -3.38973,1.67655 -1.3125,0.3889 -2.7976,0.58323 -4.45037,0.58324 -1.7014,-1e-5 -3.25701,-0.18108 -4.66673,-0.54567 -1.40973,-0.38889 -2.62346,-0.94738 -3.64428,-1.67655 -1.02085,-0.75347 -1.82216,-1.68937 -2.40549,-2.80743 -0.37172,-0.74338 -0.60896,-1.86928 -0.73394,-3.31157 -2.5296,1.58132 -5.18006,3.24928 -6.44434,4.05495 0.45643,1.38849 1.0654,2.74676 1.85395,4.06879 0.8264,1.38541 1.92257,2.6251 3.28369,3.71885 1.38541,1.06944 3.08634,1.92044 5.1037,2.55238 2.01736,0.65625 4.44485,0.98261 7.28859,0.98261 2.77084,0 5.31047,-0.39998 7.61949,-1.20206 2.33334,-0.82639 4.33876,-1.95662 6.01583,-3.39065 1.6771,-1.43404 2.97948,-3.12277 3.9031,-5.06721 0.9479,-1.94445 1.42124,-4.05967 1.42124,-6.34438 0,-2.11459 -0.30452,-3.97312 -0.91215,-5.57729 -0.58334,-1.60416 -1.44555,-3.01563 -2.5879,-4.2309 -1.14236,-1.23959 -2.56232,-2.30749 -4.2637,-3.2068 -1.67709,-0.8993 -3.6216,-1.70122 -5.83342,-2.40608 l -7.36493,-2.40608 c -0.97224,-0.34028 -1.99365,-0.68187 -3.06308,-1.02214 -1.04513,-0.34028 -2.00566,-0.80258 -2.88064,-1.38592 -0.87501,-0.60764 -1.60581,-1.3963 -2.18912,-2.36852 -0.55904,-0.99652 -0.83578,-2.29657 -0.83578,-3.90073 0,-1.06945 0.22973,-2.09025 0.69153,-3.06247 0.4618,-0.97222 1.14133,-1.82322 2.04063,-2.55239 0.92362,-0.72916 2.08072,-1.30091 3.4661,-1.71411 1.38544,-0.43749 3.00195,-0.65638 4.84917,-0.65638 1.11805,0 2.23349,0.15853 3.35156,0.47449 1.11805,0.29167 2.13944,0.72944 3.06306,1.31277 0.94793,0.55903 1.81014,1.37223 2.58792,2.44167 0.45733,0.62884 0.76189,1.4668 0.95032,2.4654 l 3.45763,-2.15697 c 1.13666,-0.70992 1.97518,-1.21435 2.93579,-1.80308 -0.70145,-1.39445 -1.56942,-2.67173 -2.60489,-3.82759 -1.02084,-1.19097 -2.21105,-2.20049 -3.57216,-3.02688 -1.33681,-0.85069 -2.84115,-1.50537 -4.51825,-1.96718 -1.65279,-0.4618 -3.46588,-0.69394 -5.43461,-0.69394 z"
           style="font-style:normal;font-variant:normal;font-weight:normal;font-stretch:normal;font-size:74.66666412px;font-family:Arvo;-inkscape-font-specification:Arvo;stroke-width:1px" />
      </g>
    </g>
  </g>
</svg>
